<svg width="60" height="60" viewBox="0 0 60 60" fill="none" xmlns="http://www.w3.org/2000/svg">
<g clip-path="url(#clip0_28_2)">
<path d="M30 56.6666C25.5798 56.6666 21.3405 54.9107 18.2149 51.7851C15.0893 48.6595 13.3334 44.4203 13.3334 40V20C13.3334 15.5797 15.0893 11.3405 18.2149 8.21487C21.3405 5.08926 25.5798 3.33331 30 3.33331C34.4203 3.33331 38.6595 5.08926 41.7852 8.21487C44.9108 11.3405 46.6667 15.5797 46.6667 20V40C46.6667 42.1887 46.2356 44.3559 45.398 46.378C44.5605 48.4001 43.3328 50.2374 41.7852 51.7851C40.2375 53.3327 38.4002 54.5604 36.3781 55.398C34.356 56.2356 32.1887 56.6666 30 56.6666ZM30 6.66665C26.4638 6.66665 23.0724 8.0714 20.5719 10.5719C18.0715 13.0724 16.6667 16.4638 16.6667 20V40C16.6667 43.5362 18.0715 46.9276 20.5719 49.4281C23.0724 51.9286 26.4638 53.3333 30 53.3333C33.5363 53.3333 36.9276 51.9286 39.4281 49.4281C41.9286 46.9276 43.3334 43.5362 43.3334 40V20C43.3334 16.4638 41.9286 13.0724 39.4281 10.5719C36.9276 8.0714 33.5363 6.66665 30 6.66665Z" fill="white"/>
<path d="M30 25C29.558 25 29.1341 24.8244 28.8215 24.5118C28.509 24.1993 28.3334 23.7754 28.3334 23.3333V16.6667C28.3334 16.2246 28.509 15.8007 28.8215 15.4882C29.1341 15.1756 29.558 15 30 15C30.4421 15 30.866 15.1756 31.1786 15.4882C31.4911 15.8007 31.6667 16.2246 31.6667 16.6667V23.3333C31.6667 23.7754 31.4911 24.1993 31.1786 24.5118C30.866 24.8244 30.4421 25 30 25Z" fill="white"/>
</g>
<defs>
<clipPath id="clip0_28_2">
<rect width="60" height="60" fill="white"/>
</clipPath>
</defs>
</svg>
